{"title":"Kaagaz Ke Fools (2015) S-Cam Rip - X264 - [1CD] - Team IcTv Excl","uid":11875703,"size":731895807,"categoryP":"video","categoryS":"other","magnet":"?xt=urn:btih:17e4f9fb3dc2c37d8d913f6eb0d280c4a83c73fc&amp;dn=Kaagaz+Ke+Fools+%282015%29+S-Cam+Rip+-+X264+-+%5B1CD%5D+-+Team+IcTv+Excl&amp;tr=udp%3A%2F%2Ftracker.openbittorrent.com%3A80&amp;tr=udp%3A%2F%2Fopen.demonii.com%3A1337&amp;tr=udp%3A%2F%2Ftracker.coppersurfer.tk%3A6969&amp;tr=udp%3A%2F%2Fexodus.desync.com%3A6969","seeders":7,"leechers":4,"uploader":"juggs99","files":2,"time":1430553398,"description":"Kaagaz Ke Fools (2015) S-Cam Rip - X264 - [1CD] - Team IcTv Exclusive -={SPARROW}=-\n &lt;a href=&quot;\nhttp://imgsparrow.co/image/JI&quot; rel=&quot;nofollow&quot; target=&quot;_NEW&quot;&gt;\nhttp://imgsparrow.co/image/JI&lt;/a&gt;\n\nInfo : - \n\nAll Credit Goes To Intellect Clever &amp; IcTv\nIts a CAM So don't compare with BluRay ;)\n\nMovie Info\nBanner :\nYear : 2015\nCast : Vinay Pathak\nVideo: X264\nAudio : AC 3\nGenre : Drama\nSubtitles : None\nResolution : 640 x 272\nRuntime : 1hr 40min xx\nSource : Team IcTv\n\nFormat                                   : Matroska\nFormat version                           : Version 2\nFile size                                : 698 MiB\nDuration                                 : 1h 40mn\nOverall bit rate                         : 968 Kbps\nEncoded date                             : UTC 2015-05-01 17:06:53\nWriting application                      : mkvmerge v7.7.0 ('Six Voices') 32bit built on Feb 28 2015 23:23:00\nWriting library                          : libebml v1.3.1 + libmatroska v1.4.2\nDURATION                                 : 01:40:50.656000000\n\nVideo\nID                                       : 1\nFormat                                   : AVC\nFormat/Info                              : Advanced Video Codec\nFormat profile                           : &lt;a class=&quot;__cf_email__&quot; href=&quot;/cdn-cgi/l/email-protection&quot; data-cfemail=&quot;733b1a141b333f415d42&quot;&gt;[email&amp;#160;protected]&lt;/a&gt;&lt;script cf-hash='f9e31' type=&quot;text/javascript&quot;&gt;\n/* &lt;![CDATA[ */!function(){try{var t=&quot;currentScript&quot;in document?document.currentScript:function(){for(var t=document.getElementsByTagName(&quot;script&quot;),e=t.length;e--;)if(t[e].getAttribute(&quot;cf-hash&quot;))return t[e]}();if(t&amp;&amp;t.previousSibling){var e,r,n,i,c=t.previousSibling,a=c.getAttribute(&quot;data-cfemail&quot;);if(a){for(e=&quot;&quot;,r=parseInt(a.substr(0,2),16),n=2;a.length-n;n+=2)i=parseInt(a.substr(n,2),16)^r,e+=String.fromCharCode(i);e=document.createTextNode(e),c.parentNode.replaceChild(e,c)}}}catch(u){}}();/* ]]&gt; */&lt;/script&gt;\nFormat settings, CABAC                   : Yes\nFormat settings, ReFrames                : 4 frames\nCodec ID                                 : V_MPEG4/ISO/AVC\nDuration                                 : 1h 40mn\nBit rate                                 : 582 Kbps\nWidth                                    : 640 pixels\nHeight                                   : 272 pixels\nDisplay aspect ratio                     : 2.35:1\nFrame rate                               : 25.000 fps\nColor space                              : YUV\nChroma subsampling                       : 4:2:0\nBit depth                                : 8 bits\nScan type                                : Progressive\nBits/(Pixel*Frame)                       : 0.134\nStream size                              : 407 MiB (58%)\nWriting library                          : x264 core 146 r2538 121396c\nDefault                                  : Yes\nForced                                   : No\n\nAudio\nID                                       : 2\nFormat                                   : AC-3\nFormat/Info                              : Audio Coding 3\nMode extension                           : CM (complete main)\nCodec ID                                 : A_AC3\nDuration                                 : 1h 40mn\nBit rate mode                            : Constant\nBit rate                                 : 384 Kbps\nChannel(s)                               : 2 channels\nChannel positions                        : Front: L R\nSampling rate                            : 48.0 KHz\nBit depth                                : 16 bits\nCompression mode                         : Lossy\nStream size                              : 277 MiB (40%)\n\nScreens : -\n &lt;a href=&quot;\nhttp://imgsparrow.co/image/JO&quot; rel=&quot;nofollow&quot; target=&quot;_NEW&quot;&gt;\nhttp://imgsparrow.co/image/JO&lt;/a&gt; &lt;a href=&quot;\nhttp://imgsparrow.co/image/Jp&quot; rel=&quot;nofollow&quot; target=&quot;_NEW&quot;&gt;\nhttp://imgsparrow.co/image/Jp&lt;/a&gt; &lt;a href=&quot;\nhttp://imgsparrow.co/image/J0&quot; rel=&quot;nofollow&quot; target=&quot;_NEW&quot;&gt;\nhttp://imgsparrow.co/image/J0&lt;/a&gt; &lt;a href=&quot;\nhttp://imgsparrow.co/image/JB&quot; rel=&quot;nofollow&quot; target=&quot;_NEW&quot;&gt;\nhttp://imgsparrow.co/image/JB&lt;/a&gt; &lt;a href=&quot;\nhttp://imgsparrow.co/image/JK&quot; rel=&quot;nofollow&quot; target=&quot;_NEW&quot;&gt;\nhttp://imgsparrow.co/image/JK&lt;/a&gt; &lt;a href=&quot;\nhttp://imgsparrow.co/image/J2&quot; rel=&quot;nofollow&quot; target=&quot;_NEW&quot;&gt;\nhttp://imgsparrow.co/image/J2&lt;/a&gt; &lt;a href=&quot;\nhttp://imgsparrow.co/image/J3&quot; rel=&quot;nofollow&quot; target=&quot;_NEW&quot;&gt;\nhttp://imgsparrow.co/image/J3&lt;/a&gt; &lt;a href=&quot;\nhttp://imgsparrow.co/image/Ji&quot; rel=&quot;nofollow&quot; target=&quot;_NEW&quot;&gt;\nhttp://imgsparrow.co/image/Ji&lt;/a&gt; &lt;a href=&quot;\nhttp://imgsparrow.co/image/JV&quot; rel=&quot;nofollow&quot; target=&quot;_NEW&quot;&gt;\nhttp://imgsparrow.co/image/JV&lt;/a&gt; &lt;a href=&quot;\nhttp://imgsparrow.co/image/Jl&quot; rel=&quot;nofollow&quot; target=&quot;_NEW&quot;&gt;\nhttp://imgsparrow.co/image/Jl&lt;/a&gt;\n &lt;a href=&quot;\nhttp://imgsparrow.co/image/N2&quot; rel=&quot;nofollow&quot; target=&quot;_NEW&quot;&gt;\nhttp://imgsparrow.co/image/N2&lt;/a&gt;","torrent":{"xt":"urn:btih:17e4f9fb3dc2c37d8d913f6eb0d280c4a83c73fc","amp;dn":"Kaagaz+Ke+Fools+%282015%29+S-Cam+Rip+-+X264+-+%5B1CD%5D+-+Team+IcTv+Excl","amp;tr":["udp%3A%2F%2Ftracker.openbittorrent.com%3A80","udp%3A%2F%2Fopen.demonii.com%3A1337","udp%3A%2F%2Ftracker.coppersurfer.tk%3A6969","udp%3A%2F%2Fexodus.desync.com%3A6969"],"infoHash":"17e4f9fb3dc2c37d8d913f6eb0d280c4a83c73fc","infoHashBuffer":{"type":"Buffer","data":[23,228,249,251,61,194,195,125,141,145,63,110,176,210,128,196,168,60,115,252]},"announce":[],"urlList":[]}}